<svg xmlns="http://www.w3.org/2000/svg" viewBox="0 0 32 32">
  <style>
    .organ { fill: #743AED; }
    @media (prefers-color-scheme: dark) {
      .organ { fill: #FFFFFF; }
    }
  </style>
  <path class="organ" d="M16,2c-0.6,0-1.1,0.2-1.6,0.5C13.2,3.3,12,4.8,12,6.5c0,1.1,0.5,2.1,1.3,2.8c-1.4,1.4-2.3,3.3-2.3,5.5 c0,4.2,3.4,7.6,7.6,7.6s7.6-3.4,7.6-7.6c0-2.2-0.9-4.1-2.3-5.5C24.7,8.6,25.2,7.6,25.2,6.5c0-1.7-1.2-3.2-2.4-4 C22.3,2.2,21.8,2,21.2,2H16z M16,11c3,0,5.5,2.5,5.5,5.5S19,22,16,22s-5.5-2.5-5.5-5.5S13,11,16,11z"/>
  <path class="organ" d="M11.5,8.5c0.8-0.8,1.5-1.5,2.5-2c-0.5-0.5-1-1-1-2c0-0.5,0.2-1,0.5-1.5"/>
  <path class="organ" d="M20.5,8.5c-0.8-0.8-1.5-1.5-2.5-2c0.5-0.5,1-1,1-2c0-0.5-0.2-1-0.5-1.5"/>
</svg>
